<svg width="100" height="100" viewBox="0 0 100 100" fill="none" xmlns="http://www.w3.org/2000/svg">
<path d="M49.9999 71.9211C62.1067 71.9211 71.9211 62.1067 71.9211 49.9999C71.9211 37.8932 62.1067 28.0787 49.9999 28.0787C37.8932 28.0787 28.0788 37.8932 28.0788 49.9999C28.0788 62.1067 37.8932 71.9211 49.9999 71.9211Z" fill="#846ADD"/>
<path d="M50 85.5909C69.7045 85.5909 85.5912 69.5811 85.5912 49.9998C85.5912 39.0392 80.665 28.9407 72.1675 22.1673L65.6404 30.4185C71.6749 35.2215 75.1232 42.3643 75.1232 49.9998C75.1232 63.7929 63.9163 75.123 50 75.123C36.2069 75.123 24.8769 63.9161 24.8769 49.9998C24.8769 36.0836 36.2069 24.8767 50 24.8767C51.1084 24.8767 52.2168 24.9998 53.3251 25.123L54.6798 14.655C53.0788 14.4087 51.4779 14.2855 49.8769 14.2855C30.1724 14.2855 14.2857 30.2954 14.2857 49.8767C14.4089 69.7042 30.2956 85.5909 50 85.5909Z" fill="#808080"/>
<path d="M50 89.532C41.0099 89.532 32.6355 86.5763 25.6158 81.0345L19.0887 89.2857C27.9557 96.3054 38.67 100 50 100C68.7192 100 85.7143 89.6552 94.335 73.1527L85.0985 68.3497C78.202 81.4039 64.7783 89.532 50 89.532Z" fill="#808080"/>
<path d="M45.5665 10.7143C47.0443 10.5911 48.5222 10.468 50 10.468C71.798 10.468 89.532 28.202 89.532 50H100C100 22.4138 77.5862 0 50 0C48.1527 0 46.3054 0.123154 44.4581 0.246306C19.0887 3.07882 0 24.5074 0 50C0 55.4187 0.862069 60.7143 2.58621 65.7635L12.5616 62.4384C11.2069 58.3744 10.5911 54.1872 10.5911 49.8768C10.468 29.803 25.6158 12.931 45.5665 10.7143Z" fill="#808080"/>
</svg>
