<svg width="243" height="60" viewBox="0 0 243 60" fill="none" xmlns="http://www.w3.org/2000/svg">
<g clip-path="url(#clip0_9_19)">
<path d="M36.1736 40.422C41.9145 40.422 46.5683 35.7681 46.5683 30.0273C46.5683 24.2864 41.9145 19.6326 36.1736 19.6326C30.4328 19.6326 25.7789 24.2864 25.7789 30.0273C25.7789 35.7681 30.4328 40.422 36.1736 40.422Z" fill="#846ADD"/>
<path d="M36.1736 46.9041C45.5172 46.9041 53.0504 39.3124 53.0504 30.0273C53.0504 24.8299 50.7145 20.0413 46.6851 16.8295L43.5901 20.7421C46.4515 23.0196 48.0867 26.4066 48.0867 30.0273C48.0867 36.5678 42.7725 41.9403 36.1736 41.9403C29.6331 41.9403 24.2606 36.6261 24.2606 30.0273C24.2606 23.4284 29.6331 18.1142 36.1736 18.1142C36.6992 18.1142 37.2248 18.1726 37.7503 18.231L38.3927 13.2672C37.6335 13.1504 36.8744 13.092 36.1152 13.092C26.7717 13.092 19.2384 20.6837 19.2384 29.9689C19.2968 39.3708 26.8301 46.9041 36.1736 46.9041Z" fill="#333333"/>
<path d="M36.1736 48.7728C31.9106 48.7728 27.9396 47.3713 24.611 44.7434L21.5159 48.6561C25.7205 51.9847 30.8011 53.7366 36.1736 53.7366C45.05 53.7366 53.1088 48.8312 57.1966 41.006L52.8168 38.7285C49.5466 44.9186 43.1813 48.7728 36.1736 48.7728Z" fill="#333333"/>
<path d="M34.0713 11.3986C34.7721 11.3402 35.4729 11.2818 36.1736 11.2818C46.5099 11.2818 54.9192 19.691 54.9192 30.0273H59.8829C59.8829 16.9463 49.2546 6.31799 36.1736 6.31799C35.2977 6.31799 34.4217 6.37639 33.5457 6.43479C21.5159 7.77793 12.4643 17.9391 12.4643 30.0273C12.4643 32.5968 12.8731 35.1079 13.6907 37.5021L18.4208 35.9254C17.7785 33.9983 17.4865 32.0128 17.4865 29.9689C17.4281 20.4501 24.611 12.4497 34.0713 11.3986Z" fill="#333333"/>
<path d="M87.048 18.318H89.8376V41.8453H87.048V31.5605H75.0827V41.8453H72.293V18.318H75.0827V28.9389H87.048V18.318ZM105.399 17.9819C111.516 17.9819 117.432 22.9563 117.432 30.0817C117.432 37.2071 111.516 42.1814 105.399 42.1814C99.2485 42.1814 93.3667 37.2071 93.3667 30.0817C93.3667 22.9563 99.2485 17.9819 105.399 17.9819ZM105.399 39.5262C110.004 39.5262 114.541 35.6274 114.541 30.0817C114.541 24.536 110.004 20.6372 105.399 20.6372C100.761 20.6372 96.2572 24.536 96.2572 30.0817C96.2572 35.6274 100.761 39.5262 105.399 39.5262ZM151.748 18.318L144.152 41.8453H142.337L135.85 23.4604L129.397 41.8453H127.582L119.953 18.318H122.843L128.59 36.0979L134.875 18.318H136.825L143.144 36.0979L148.891 18.318H151.748ZM168.654 20.8388H157.63V28.8045H166.738V31.1908H157.63V41.8453H154.773V18.318H168.654V20.8388ZM174.637 39.2237H185.19V41.8453H171.847V18.318H174.637V39.2237ZM207.877 18.318L199.105 30.9891V41.8453H196.315V30.9891L187.543 18.318H190.736L197.693 28.4348L204.684 18.318H207.877ZM223.775 18.318V41.8453H220.985V18.318H223.775ZM243 18.318V20.9396H236.48V41.8453H233.69V20.9396H227.136V18.318H243Z" fill="#333333"/>
</g>
<defs>
<clipPath id="clip0_9_19">
<rect width="243" height="59.8829" fill="white"/>
</clipPath>
</defs>
</svg>
